<svg width="792" height="613" viewBox="0 0 792 613" fill="none" xmlns="http://www.w3.org/2000/svg">
<path d="M267.3 220.428C264.6 218.428 262.2 216.728 260 214.828C257.8 212.928 257.5 210.428 258.8 207.928C260.1 205.128 262.6 204.228 265.4 205.628C268.7 207.428 271.8 209.328 275 211.328C276.7 212.428 277.7 212.528 279.5 211.128C286 206.128 292.7 201.528 299.5 196.628C295.1 191.528 290.6 186.428 286.1 181.228C280.6 175.028 275 168.828 269.6 162.528C267.1 159.628 267.2 156.828 269.3 154.728C271.5 152.528 274.4 152.428 277.2 155.028C281.5 159.128 285.5 163.628 289.5 168.028C296.4 175.728 303.3 183.528 310.3 191.428C312.2 190.328 314 189.228 316.3 187.928C314.2 185.328 312.3 182.728 310.3 180.328C302.9 171.528 295.5 162.828 288.2 154.028C284.4 149.528 284 146.228 286.9 143.828C289.6 141.528 293.4 142.628 296.9 146.928C306.2 158.128 315.5 169.328 324.7 180.728C326.2 182.628 327.4 182.828 329.5 181.828C333.5 179.928 337.8 178.328 342.3 176.428C341.9 174.628 341.4 172.528 341 170.528C340.5 168.228 340.1 165.928 339.7 163.628C339.1 160.328 340.1 158.428 342.8 157.628C345.6 156.828 348.5 158.128 349.5 160.928C350.6 164.028 351.3 167.328 352.2 170.528C352.4 171.328 352.7 172.228 352.9 172.928C360.4 171.828 367.7 170.628 375.3 169.528C375.3 164.228 375.2 158.828 375.3 153.528C375.4 148.828 379.7 146.528 383.5 149.128C384.7 149.928 385.6 151.928 385.7 153.528C386 158.928 385.8 164.228 385.8 169.428C393.5 170.728 400.9 171.928 408.4 173.228C409.5 169.228 410.5 165.128 411.7 161.128C412.6 158.328 415.3 156.828 417.9 157.428C420.4 158.028 421.9 160.628 421.5 163.628C421.3 165.028 420.9 166.528 420.6 167.928C420.1 170.228 419.7 172.528 419 174.728C418.6 176.128 418.9 176.828 420.3 177.428C425.1 179.328 429.9 181.328 434.5 183.228C443.9 171.828 453.3 160.428 462.7 149.028C464.1 147.328 465.6 145.628 467.3 144.128C469.5 142.228 472.8 142.528 474.7 144.628C476.6 146.628 476.7 149.528 474.9 151.728C467.7 160.528 460.6 169.228 453.4 178.028C450.7 181.328 448 184.628 445 188.328C446.9 189.628 448.7 190.828 450.8 192.128C458.3 183.328 465.7 174.728 473.2 166.028C476.3 162.528 479.5 159.028 482.7 155.728C485.5 152.828 488.5 152.428 491 154.328C493.9 156.528 494.4 159.328 492 162.128C486.1 169.028 480.1 175.928 474.1 182.728C470 187.428 465.8 192.028 461.4 197.028C468.7 202.228 475.9 207.428 483.4 212.728C487.1 210.528 490.9 208.128 494.8 205.928C497.9 204.228 500.3 204.828 502.1 207.628C503.6 209.928 503.1 213.028 500.7 214.928C499.5 215.928 498.2 216.828 496.9 217.628C495.7 218.428 494.5 219.228 492.9 220.228C496.1 222.828 499 225.128 501.8 227.528C513.1 237.528 524.5 247.328 535.6 257.528C541.7 263.128 541.8 264.028 535.5 269.428C520.9 282.028 506 294.128 491.3 306.528C491 306.728 490.7 307.028 490.1 307.528C492.5 309.228 494.8 310.828 497.1 312.428C498.7 313.628 500.3 314.728 501.7 316.028C503.8 318.128 503.7 321.328 501.8 323.528C499.8 325.828 497.4 326.128 494.8 324.328C490.2 321.128 485.6 317.828 480.9 314.528C474.7 318.628 468.4 322.728 461.8 327.028C463 328.428 464.1 329.828 465.3 331.228C474.2 341.728 483.2 352.228 492.1 362.728C494.4 365.528 494.3 368.728 492.1 370.828C489.5 373.228 486.6 373.228 483.9 370.128C477.3 362.728 471 355.128 464.5 347.728C460 342.428 455.5 337.228 450.9 331.928C449.3 332.928 447.8 333.928 446.1 335.028C448.9 338.628 451.6 342.028 454.3 345.528C461.3 354.728 468.3 363.928 475.1 373.128C476.1 374.528 477 376.728 476.7 378.228C476.3 379.928 474.7 381.828 473.2 382.728C471.1 383.928 468.9 382.828 467.5 381.028C462.9 375.328 458.4 369.528 453.9 363.728C448.5 356.528 443.1 349.328 437.8 342.028C436.6 340.428 435.7 339.928 433.8 340.728C429.1 342.628 424.3 344.228 419.1 346.028C420 349.528 421.1 353.028 421.9 356.628C422.8 360.428 420.7 363.628 417.4 363.728C414.7 363.828 413 362.328 412.2 359.828C411.1 356.328 409.9 352.828 408.9 349.328C401.5 350.528 394.2 351.728 386.4 353.028C386.4 356.428 386.5 360.028 386.4 363.728C386.3 368.128 382.6 370.428 378.7 368.728C376.5 367.728 375.9 365.828 375.9 363.728C375.9 361.828 375.9 360.028 375.9 358.128C375.9 356.428 375.9 354.628 375.9 352.928C368.3 351.828 360.9 350.728 353.2 349.528C352.4 352.428 351.5 355.628 350.6 358.828C349.9 361.328 348.5 363.228 345.7 363.628C342.3 364.028 339.6 361.328 340.3 357.828C341 354.028 341.9 350.228 342.7 346.428C337.3 344.328 331.8 342.228 326 340.028C322 345.428 318.1 350.828 314.1 356.228C307.9 364.328 301.7 372.328 295.5 380.328C293.9 382.328 291.7 384.028 289.2 382.928C287.7 382.228 286 380.428 285.7 378.828C285.4 377.128 286.2 374.928 287.3 373.428C291.3 367.728 295.5 362.228 299.7 356.728C304.6 350.328 309.5 344.028 314.4 337.628C314.9 336.928 315.4 336.228 316 335.228C314.4 334.128 312.9 333.128 311.1 331.928C309.9 333.428 308.8 334.828 307.6 336.228C298 347.428 288.5 358.828 278.8 369.828C277.5 371.228 274.9 372.128 272.9 372.028C270.4 372.028 269 369.628 268.9 367.328C268.8 365.828 269.3 363.928 270.3 362.828C278.5 352.928 286.9 343.028 295.2 333.228C296.8 331.328 298.5 329.328 300.3 327.128C293.8 322.928 287.4 318.728 281.2 314.728C276.3 317.928 271.6 321.128 266.8 324.128C263.9 325.928 261.5 325.628 259.8 323.528C258 321.128 258 317.528 260.4 315.528C263.2 313.128 266.3 311.028 269.3 308.828C269.8 308.528 270.2 308.128 271 307.628C266.2 303.828 261.5 300.228 257.1 296.428C246.2 286.928 235.4 277.328 224.7 267.628C221.5 264.728 221.6 263.828 224.6 260.628C237.1 247.428 250.1 234.728 264.4 223.428C264.5 222.328 265.8 221.528 267.3 220.428ZM463.9 261.328C463.1 255.228 463 249.028 461.4 243.128C454.3 215.728 437.2 197.028 410.9 186.828C396.7 181.328 381.8 180.328 366.8 182.528C343 185.928 324.3 197.728 310.8 217.528C299.2 234.628 295.4 253.528 298.5 273.928C301.7 295.028 312.1 311.928 329 324.528C347 337.828 367.6 342.828 389.9 340.328C414.4 337.628 434.3 326.528 448.9 306.728C458.7 293.328 463.7 278.128 463.9 261.328ZM297.7 310.728C295.1 305.928 292.6 301.328 290.1 296.728C289.6 295.828 289.1 294.828 288.4 294.128C285.4 291.228 282.2 288.528 279.2 285.728C273.7 280.528 273.6 282.028 279.4 276.428C284.3 271.628 287.8 266.928 286.3 259.728C286.3 259.528 286.4 259.328 286.3 259.128C285.7 257.728 285.3 256.028 284.4 254.928C281.4 251.528 278.1 248.428 274.7 244.928C277.3 242.428 279.6 240.428 281.7 238.028C285.2 234.128 290 231.428 292.1 226.128C293.6 222.428 295.9 219.028 297.8 215.528C298.1 214.928 298.4 214.328 298.9 213.328C284.8 221.528 242 257.728 238.8 264.128C248.3 274.728 288.7 306.628 297.7 310.728ZM462.6 311.128C484.3 297.128 503.3 280.528 522.3 263.628C503.7 245.128 484.1 228.828 463.1 214.028C465.3 218.628 467.7 222.928 470 227.328C470.8 228.728 471.3 230.428 472.4 231.528C476.9 235.928 481.5 240.028 486.1 244.228C483.6 246.828 481.5 249.228 479.1 251.328C476 254.028 473.9 257.028 474.7 261.428C475 263.328 474.6 265.328 474.8 267.328C474.9 268.428 475.4 269.728 476.1 270.528C479.2 273.928 482.5 277.228 485.9 280.828C482.1 284.328 478.6 287.628 475.1 290.828C473.6 292.228 471.6 293.428 470.6 295.128C467.9 300.228 465.5 305.428 462.6 311.128Z" fill="black"/>
<path d="M544.6 235.628C537.8 235.428 532.9 230.228 533.1 223.528C533.3 217.028 538.8 211.828 545.1 212.028C552.1 212.328 556.8 217.428 556.6 224.528C556.5 230.428 550.8 235.728 544.6 235.628Z" fill="black"/>
<path d="M203.8 224.128C203.7 217.028 208.4 212.128 215.6 212.028C221.7 211.828 227.2 217.428 227.3 223.928C227.4 230.328 222.3 235.628 216 235.628C209 235.628 203.9 230.928 203.8 224.128Z" fill="black"/>
<path d="M556.6 310.828C556.6 316.928 551.4 322.228 545.2 322.228C538.8 322.328 533.3 316.928 533.3 310.628C533.3 303.828 538.2 298.728 544.7 298.628C551.6 298.628 556.5 303.728 556.6 310.828Z" fill="black"/>
<path d="M203.9 310.228C204 303.528 209.1 298.728 216 298.828C222 298.828 227.4 304.528 227.3 310.728C227.2 317.328 221.7 322.228 214.6 322.128C208.6 322.028 203.8 316.728 203.9 310.228Z" fill="black"/>
<path d="M346.1 374.228C345.5 376.228 345.1 377.428 344.7 378.528C341.5 386.628 338.3 394.628 335 402.728C334.5 404.128 333.8 405.428 333.1 406.628C331.7 408.828 329.6 409.528 327.2 408.728C325 407.928 323.9 406.028 324 403.628C324.1 402.028 324.4 400.328 325 398.828C328.2 390.428 331.6 382.128 335 373.828C335.6 372.428 336.5 370.728 337.7 370.128C339.2 369.428 341.5 369.128 342.8 369.828C344.3 370.828 345.1 372.928 346.1 374.228Z" fill="black"/>
<path d="M414.8 373.528C415.9 372.228 416.8 370.428 418.2 369.928C419.7 369.428 422.1 369.628 423.2 370.528C424.8 371.828 425.9 374.028 426.7 376.028C429.8 383.728 432.7 391.428 435.7 399.228C436 400.128 436.4 401.028 436.5 402.028C437.1 405.128 435.7 407.628 433 408.628C430.4 409.528 428 408.428 426.7 405.328C422.9 395.828 419.3 386.228 415.7 376.628C415.4 375.828 415.4 374.928 415.3 374.028C415.2 373.928 415 373.728 414.8 373.528Z" fill="black"/>
<path d="M329.1 112.728C331.6 112.728 333.4 114.028 334.3 116.328C335.7 119.528 336.9 122.828 338.2 126.128C340.5 132.028 342.9 137.928 345.1 143.828C346.2 146.828 345.2 149.528 342.8 150.828C340.2 152.128 337 151.228 335.7 148.228C332.7 141.528 330 134.728 327.3 127.928C326.2 125.028 325.1 122.128 324.2 119.128C323.3 115.728 325.8 112.728 329.1 112.728Z" fill="black"/>
<path d="M415.2 146.028C415.4 145.128 415.5 144.128 415.9 143.228C418.9 135.328 421.9 127.328 425 119.428C425.6 117.928 426.4 116.428 427.3 115.028C428.7 112.828 430.7 112.128 433.1 112.928C435.7 113.828 437 115.928 436.6 118.528C436.4 119.728 436.1 121.028 435.6 122.128C432.5 130.028 429.3 137.928 426.1 145.728C425.6 146.928 424.9 148.228 424.1 149.228C422.6 151.128 420.3 151.828 418.3 150.728C416.8 149.828 415.8 147.928 414.6 146.528C414.8 146.328 415 146.228 415.2 146.028Z" fill="black"/>
<path d="M535 190.728C534.6 191.428 534.1 193.128 532.9 194.128C528 198.028 523 201.728 518 205.428C516.8 206.328 515.6 207.128 514.4 207.828C511.1 209.928 507.8 209.628 505.9 207.228C504.1 204.828 504.4 201.328 507.5 198.928C513.1 194.628 518.8 190.628 524.7 186.728C526.4 185.628 528.6 185.028 530.7 185.028C533.2 185.028 535 187.428 535 190.728Z" fill="black"/>
<path d="M305.2 106.828C305 113.228 300.1 117.828 293.8 117.528C288.1 117.228 283.7 112.228 283.9 106.228C284.1 100.028 288.7 95.7276 294.9 95.8276C300.6 96.0276 305.4 101.128 305.2 106.828Z" fill="black"/>
<path d="M229.8 346.728C228.9 346.028 227.2 345.328 226.4 344.028C225.1 342.028 225.2 339.528 227.1 337.828C230.1 335.128 233.4 332.528 236.6 330.128C239.7 327.828 242.9 325.628 246.3 323.528C249.9 321.228 253.7 322.428 255.2 325.828C256.1 328.128 255.8 330.328 253.9 331.628C247 336.528 240 341.328 233 346.028C232.3 346.528 231.4 346.428 229.8 346.728Z" fill="black"/>
<path d="M465.8 117.428C460.2 117.428 455.4 112.528 455.4 106.928C455.4 100.828 460.1 95.8276 465.9 95.8276C471.9 95.9276 476.6 100.728 476.6 106.728C476.7 112.628 471.8 117.428 465.8 117.428Z" fill="black"/>
<path d="M255.5 203.028C255.5 207.528 251.9 210.328 248.5 209.028C246.1 208.028 243.9 206.528 241.8 205.028C237.1 201.628 232.3 198.128 227.8 194.428C225.2 192.228 224.8 189.728 226.4 187.528C228 185.328 231.2 184.228 233.7 185.928C240.4 190.328 246.9 195.028 253.3 199.728C254.5 200.528 255 202.228 255.5 203.028Z" fill="black"/>
<path d="M535.4 341.728C535 345.428 532.1 347.928 528.7 346.728C525.6 345.628 522.7 343.728 519.8 341.828C516.2 339.428 512.8 336.828 509.4 334.228C508.5 333.528 507.6 332.728 506.8 331.828C504.6 329.528 504.4 327.128 506.2 324.728C507.9 322.528 510.5 321.728 513 323.328C518.3 326.728 523.5 330.428 528.8 334.028C530.4 335.128 532 336.328 533.3 337.728C534.2 338.828 534.7 340.328 535.4 341.728Z" fill="black"/>
<path d="M380.2 58.8276C386.1 58.8276 390.7 63.5276 390.8 69.4276C390.8 75.3276 385.9 80.2276 380 80.2276C374.4 80.2276 369.7 75.4276 369.7 69.6276C369.8 63.3276 374.2 58.8276 380.2 58.8276Z" fill="black"/>
<path d="M375.1 103.428C375.1 100.728 375 97.9276 375.1 95.2276C375.4 91.3276 377.2 89.5276 380.5 89.6276C383.7 89.8276 385.6 91.8276 385.6 95.5276C385.7 100.528 385.6 105.528 385.5 110.528C385.4 114.028 382.9 116.728 380 116.628C377 116.528 375.1 114.228 375.1 110.528C375 108.128 375 105.828 375.1 103.428Z" fill="black"/>
<path d="M375.2 414.428C375.2 411.928 375.2 409.328 375.2 406.828C375.3 403.228 377.1 401.328 380.3 401.328C383.5 401.328 385.5 403.328 385.6 406.728C385.7 411.928 385.7 417.128 385.6 422.328C385.5 426.028 383.6 428.028 380.3 428.028C377.1 428.028 375.3 425.928 375.3 422.228C375.1 419.528 375.1 416.928 375.2 414.428Z" fill="black"/>
<path d="M385.2 132.028C385.2 133.728 385.3 135.328 385.2 137.028C385 139.828 382.7 141.628 380 141.528C377.4 141.428 375.5 139.628 375.5 136.828C375.4 133.428 375.5 130.028 375.5 126.628C375.5 124.028 376.7 122.328 379.4 122.128C382.2 121.828 384.5 123.428 385.1 126.028C385.2 126.328 385.2 126.628 385.2 126.928C385.3 128.528 385.3 130.228 385.2 132.028Z" fill="black"/>
<path d="M375.6 385.628C375.6 383.828 375.4 382.128 375.6 380.328C375.9 378.028 376.9 376.228 379.5 375.928C382.2 375.628 384.8 377.028 385 379.628C385.3 383.728 385.4 387.828 384.8 391.928C384.5 394.228 382.2 395.528 379.6 395.228C377.2 394.928 375.8 393.228 375.6 390.828C375.5 389.128 375.6 387.328 375.6 385.628Z" fill="black"/>
<path d="M553.6 265.628C553.6 261.728 556.4 259.028 560.5 259.028C564.6 259.028 567.6 261.828 567.7 265.828C567.8 269.728 564.4 273.228 560.5 273.128C556.7 273.028 553.6 269.728 553.6 265.628Z" fill="black"/>
<path d="M508.7 149.228C504.6 149.128 501.9 146.228 502 141.928C502.1 138.028 505.1 135.328 509.1 135.428C513.1 135.528 516.4 138.728 516.3 142.328C516.2 146.228 512.9 149.328 508.7 149.228Z" fill="black"/>
<path d="M207.4 265.828C207.4 269.828 204.3 273.028 200.5 273.128C196.7 273.128 193.5 269.828 193.4 266.028C193.3 261.828 196.3 258.928 200.6 258.928C204.3 258.928 207.4 262.028 207.4 265.828Z" fill="black"/>
<path d="M244.9 142.228C244.8 138.228 247.7 135.328 251.6 135.328C255.2 135.328 258.6 138.728 258.7 142.528C258.7 146.128 255.5 149.328 251.8 149.428C247.8 149.328 244.9 146.328 244.9 142.228Z" fill="black"/>
<path d="M355.1 83.5276C355 87.5276 351.9 90.4276 347.9 90.3276C344.4 90.2276 341.4 86.8276 341.4 82.9276C341.5 79.2276 344.5 76.2276 348.2 76.3276C352.4 76.6276 355.2 79.4276 355.1 83.5276Z" fill="black"/>
<path d="M355 134.728C355 133.428 354.6 131.928 355.1 131.028C355.8 129.728 357.2 128.128 358.5 128.028C359.9 127.828 362.6 128.928 362.8 129.828C363.8 133.928 364.5 138.128 364.6 142.428C364.7 144.328 362.8 145.728 360.4 145.728C358.1 145.728 356.6 144.728 356.1 142.528C355.5 139.928 355.2 137.328 354.7 134.728C354.8 134.728 354.9 134.728 355 134.728Z" fill="black"/>
<path d="M419.7 83.4276C419.7 87.5276 416.9 90.5276 413.1 90.4276C409.4 90.4276 406.3 87.2276 406.2 83.4276C406.2 79.6276 409.1 76.6276 412.8 76.6276C417 76.7276 419.6 79.3276 419.7 83.4276Z" fill="black"/>
<path d="M439.3 84.9276C443.2 84.9276 446.2 87.6276 446.3 91.2276C446.4 95.3276 443.4 98.5276 439.6 98.5276C435.8 98.5276 432.9 95.4276 432.9 91.5276C432.9 87.9276 435.8 85.0276 439.3 84.9276Z" fill="black"/>
<path d="M396.1 139.428C396.4 137.428 396.7 134.428 397.4 131.528C398 129.028 399.7 127.628 402.4 128.128C404.9 128.528 406.4 130.428 406.1 133.228C405.8 136.028 405.5 138.828 404.9 141.628C404.1 145.028 401.5 146.728 398.8 145.728C396.6 144.928 395.9 143.628 396.1 139.428Z" fill="black"/>
<path d="M314.4 91.6276C314.4 87.6276 317 84.9276 321.1 84.8276C324.7 84.8276 327.8 87.8276 327.8 91.4276C327.9 95.0276 324.6 98.3276 320.9 98.3276C317.3 98.4276 314.5 95.5276 314.4 91.6276Z" fill="black"/>
<path d="M364.5 380.328C364.3 382.328 364.1 384.428 363.8 386.428C363.4 389.828 361.2 391.628 358.1 391.228C355.5 390.928 354.3 388.728 354.8 385.228C355.1 383.228 355.1 381.128 355.4 379.128C356 375.128 357.6 373.528 360.3 373.728C363.2 374.028 364.7 376.328 364.5 380.328Z" fill="black"/>
<path d="M406.1 384.828C406.4 388.728 405.1 390.728 402.7 391.228C400.2 391.728 398 390.228 397.4 387.428C396.8 384.428 396.4 381.328 396.2 378.228C396.1 375.828 397.5 374.128 399.9 373.728C402.2 373.328 404.3 374.828 404.8 377.328C405.5 380.128 405.8 383.028 406.1 384.828Z" fill="black"/>
<path d="M262.4 124.028C262.5 119.928 265.1 117.428 269.3 117.528C272.7 117.528 275.7 120.728 275.7 124.228C275.7 128.028 272.7 130.928 269 130.828C265.3 130.728 262.4 127.728 262.4 124.028Z" fill="black"/>
<path d="M491.3 130.828C487.7 130.628 484.9 127.628 485.1 124.028C485.3 120.128 488.1 117.328 491.9 117.528C495.5 117.628 498.6 120.928 498.5 124.428C498.3 127.828 494.7 131.028 491.3 130.828Z" fill="black"/>
<path d="M239.3 169.728C235.6 169.628 232.7 166.628 232.8 162.828C232.9 159.528 235.8 156.628 239.1 156.728C242.9 156.828 245.7 159.628 245.6 163.228C245.5 166.728 242.6 169.728 239.3 169.728Z" fill="black"/>
<path d="M521.1 169.728C517.8 169.728 514.9 166.528 514.9 162.928C514.9 159.828 518 156.728 521.1 156.728C524.6 156.828 527.6 159.528 527.6 162.528C527.5 166.728 524.9 169.728 521.1 169.728Z" fill="black"/>
<path d="M529.9 368.428C533.2 368.528 535.3 370.628 535.3 373.628C535.2 376.628 532.6 379.428 529.9 379.428C526.8 379.428 524.3 376.928 524.4 373.828C524.4 370.628 526.7 368.328 529.9 368.428Z" fill="black"/>
<path d="M228.5 368.328C231.3 368.328 233.6 370.728 233.6 373.628C233.5 376.528 231 379.228 228.3 379.228C225.5 379.228 222.9 376.628 222.9 373.728C222.8 370.928 225.5 368.328 228.5 368.328Z" fill="black"/>
<path d="M319.7 141.228C319.7 143.928 317.3 146.228 314.6 146.228C312 146.228 309.9 144.028 309.9 141.228C309.9 138.428 312.1 136.128 314.8 136.128C317.6 136.128 319.7 138.328 319.7 141.228Z" fill="black"/>
<path d="M436.8 363.728C439.5 363.728 442 366.128 442 368.628C442 371.328 439.7 373.728 437 373.728C434.3 373.728 432.1 371.428 432 368.628C432 366.028 434.3 363.728 436.8 363.728Z" fill="black"/>
<path d="M441.6 154.528C441.6 157.128 439 159.628 436.5 159.528C434 159.428 431.9 156.928 431.9 154.028C431.9 151.428 434.2 149.128 436.7 149.228C439.6 149.428 441.7 151.728 441.6 154.528Z" fill="black"/>
<path d="M323.1 363.628C325.9 363.528 327.9 365.528 328 368.328C328.1 371.228 326.2 373.428 323.6 373.528C321 373.628 318.5 371.328 318.4 368.628C318.5 365.828 320.5 363.728 323.1 363.628Z" fill="black"/>
<path d="M274.3 187.828C274.2 190.628 272.3 192.728 269.6 192.728C266.8 192.728 264.9 190.528 265 187.528C265.1 184.728 267.2 182.728 269.9 182.828C272.6 182.828 274.4 184.828 274.3 187.828Z" fill="black"/>
<path d="M445.8 136.128C448.5 136.128 450.8 138.528 450.7 141.228C450.6 143.928 448.2 146.228 445.6 146.128C443 146.028 440.9 143.728 441 141.028C441.2 138.428 443.3 136.128 445.8 136.128Z" fill="black"/>
<path d="M491.1 192.428C488.4 192.428 486.4 190.328 486.4 187.528C486.4 184.728 488.6 182.528 491.2 182.628C493.9 182.728 496 184.928 496 187.528C496 190.228 493.7 192.428 491.1 192.428Z" fill="black"/>
<path d="M491.1 343.828C488.5 343.928 486.4 341.828 486.3 339.028C486.2 336.228 488.2 334.128 490.9 334.028C493.7 333.928 496 336.128 495.9 338.928C495.9 341.428 493.6 343.728 491.1 343.828Z" fill="black"/>
<path d="M328.1 154.628C328 157.228 325.7 159.528 323.2 159.428C320.7 159.328 318.5 156.928 318.6 154.328C318.7 151.728 321 149.228 323.4 149.328C326 149.428 328.2 151.928 328.1 154.628Z" fill="black"/>
<path d="M310.1 381.928C310.1 379.228 312 377.128 314.5 377.128C317.4 377.028 319.6 379.028 319.7 381.528C319.8 384.128 317.2 387.028 314.7 387.128C312.4 387.128 310.1 384.628 310.1 381.928Z" fill="black"/>
<path d="M450.8 381.628C450.9 384.228 448.2 387.028 445.6 387.028C443.4 387.028 441.2 384.828 441.1 382.428C441 379.428 442.9 377.228 445.7 377.128C448.6 377.128 450.7 378.928 450.8 381.628Z" fill="black"/>
<path d="M405.5 396.628C408.2 396.628 409.9 398.528 409.9 401.428C409.9 404.128 407.5 406.428 404.8 406.328C402.4 406.228 400.4 404.128 400.5 401.628C400.6 398.728 402.8 396.528 405.5 396.628Z" fill="black"/>
<path d="M405.2 113.128C408 113.128 409.9 115.028 410 117.828C410.1 120.328 407.7 122.628 405.1 122.628C402.6 122.528 400.5 120.428 400.5 117.928C400.4 115.128 402.4 113.228 405.2 113.128Z" fill="black"/>
<path d="M260.5 177.128C260.5 180.128 258.5 182.228 255.7 182.228C253.1 182.228 251.2 180.128 251.2 177.228C251.2 174.628 253.2 172.728 255.9 172.728C258.6 172.628 260.5 174.528 260.5 177.128Z" fill="black"/>
<path d="M274.4 338.828C274.3 341.728 272.1 343.828 269.4 343.728C266.8 343.628 265 341.428 265.1 338.528C265.2 335.828 267.1 334.028 269.8 334.028C272.3 334.228 274.4 336.428 274.4 338.828Z" fill="black"/>
<path d="M241 311.728C238.7 311.728 236.6 309.328 236.5 306.828C236.4 304.128 238.7 301.828 241.2 301.928C243.6 302.028 245.7 304.228 245.7 306.828C245.7 309.428 243.5 311.728 241 311.728Z" fill="black"/>
<path d="M524 223.928C524 226.628 521.9 229.128 519.5 229.128C517 229.128 514.8 226.928 514.8 224.128C514.8 221.428 516.7 219.328 519.2 219.328C521.9 219.328 524 221.328 524 223.928Z" fill="black"/>
<path d="M354.9 112.928C357.4 112.928 359.9 115.328 360.1 118.028C360.2 120.228 357.9 122.628 355.8 122.728C352.9 122.828 350.9 120.828 350.9 117.828C350.7 115.128 352.5 113.028 354.9 112.928Z" fill="black"/>
<path d="M360.1 401.328C360.2 403.928 358.2 406.128 355.7 406.228C353 406.328 350.8 404.228 350.8 401.528C350.8 398.728 352.6 396.628 355.1 396.628C357.7 396.628 360 398.728 360.1 401.328Z" fill="black"/>
<path d="M524.1 306.828C524 309.328 521.9 311.528 519.5 311.428C516.8 311.428 514.8 309.328 514.8 306.528C514.8 303.728 516.7 301.828 519.3 301.828C522 301.928 524.2 304.228 524.1 306.828Z" fill="black"/>
<path d="M504.7 172.628C507.3 172.628 509.3 174.628 509.4 177.128C509.5 179.828 507.4 182.128 504.8 182.128C502.1 182.228 500.2 180.128 500.2 177.228C500.1 174.628 502 172.728 504.7 172.628Z" fill="black"/>
<path d="M245.8 224.328C245.7 227.028 243.5 229.228 240.9 229.128C238.5 229.028 236.4 226.428 236.5 223.828C236.7 221.128 238.7 219.328 241.3 219.528C244.1 219.628 245.9 221.628 245.8 224.328Z" fill="black"/>
<path d="M509.3 349.328C509.3 351.928 507 354.228 504.6 354.328C502.1 354.328 500.1 352.328 500.1 349.628C500.1 347.028 502 344.928 504.6 344.828C507.2 344.728 509.3 346.728 509.3 349.328Z" fill="black"/>
<path d="M255.8 354.228C253.2 354.228 251.4 352.528 251.4 349.828C251.3 346.928 253.2 344.828 255.9 344.828C258.4 344.828 260.2 346.828 260.3 349.628C260.3 352.128 258.3 354.128 255.8 354.228Z" fill="black"/>
<path d="M463.9 261.328C463.8 278.128 458.8 293.228 449 306.628C434.4 326.528 414.5 337.528 390 340.228C367.7 342.728 347.1 337.728 329.1 324.428C312.1 311.928 301.8 294.928 298.6 273.828C295.5 253.428 299.3 234.428 310.9 217.428C324.3 197.628 343.1 185.828 366.9 182.428C381.9 180.228 396.8 181.228 411 186.728C437.3 196.928 454.4 215.728 461.5 243.028C462.9 249.028 463.1 255.228 463.9 261.328ZM320.3 262.328C320.2 291.528 344.2 320.028 377.7 320.628C416.5 321.328 440.1 292.328 440.5 262.428C441 228.528 413.7 201.328 379.7 201.528C344.8 201.728 320.2 228.328 320.3 262.328Z" fill="white"/>
<path d="M297.7 310.728C288.7 306.628 248.3 274.728 238.5 264.028C241.7 257.528 284.5 221.328 298.6 213.228C298.1 214.228 297.9 214.828 297.5 215.428C295.6 218.928 293.3 222.328 291.8 226.028C289.7 231.328 285 234.028 281.4 237.928C279.3 240.228 276.9 242.328 274.4 244.828C277.8 248.228 281.1 251.428 284.1 254.828C285.1 255.928 285.4 257.628 286 259.028C286.1 259.228 286 259.428 286 259.628C287.5 266.828 284 271.628 279.1 276.328C273.4 281.928 273.4 280.428 278.9 285.628C282 288.428 285.1 291.228 288.1 294.028C288.8 294.728 289.3 295.728 289.8 296.628C292.5 301.228 295.1 305.928 297.7 310.728ZM266.6 250.328C262 255.028 258 259.028 253.9 263.128C257.9 267.028 262 271.028 266.3 275.228C270.2 271.128 274.2 266.928 278.3 262.728C274.2 258.328 270.5 254.328 266.6 250.328Z" fill="white"/>
<path d="M462.6 311.128C465.5 305.428 467.9 300.228 470.7 295.228C471.7 293.528 473.7 292.328 475.2 290.928C478.7 287.728 482.2 284.428 486 280.928C482.6 277.428 479.3 274.128 476.2 270.628C475.5 269.828 475 268.528 474.9 267.428C474.7 265.528 475.1 263.428 474.8 261.528C474 257.128 476.1 254.128 479.2 251.428C481.6 249.328 483.7 246.828 486.2 244.328C481.6 240.128 477 235.928 472.5 231.628C471.4 230.528 470.9 228.828 470.1 227.428C467.7 223.028 465.4 218.628 463.2 214.128C484.2 228.828 503.8 245.228 522.4 263.728C503.3 280.628 484.3 297.128 462.6 311.128ZM506.5 262.828C502.3 258.728 498.2 254.628 493.8 250.228C489.7 254.628 485.7 258.928 482.2 262.628C483.4 264.128 484.4 265.528 485.5 266.728C487.6 269.028 489.7 271.328 491.9 273.528C492.8 274.428 493.9 276.128 495.5 274.528C499.2 270.728 502.8 266.828 506.5 262.828Z" fill="white"/>
<path d="M320.3 262.328C320.1 228.328 344.7 201.728 379.7 201.528C413.7 201.328 441 228.528 440.5 262.428C440.1 292.428 416.4 321.428 377.7 320.628C344.2 320.028 320.3 291.528 320.3 262.328ZM346.1 246.728C346.1 256.428 354 264.528 363.8 264.528C373.1 264.528 381 256.428 381.1 246.728C381.2 237.528 373.3 229.028 364.5 228.928C354 228.728 346.2 236.328 346.1 246.728ZM346.6 230.628C348.8 230.328 350.6 229.828 350.8 227.328C350.9 225.128 348.9 222.928 346.9 223.028C344.6 223.128 343.2 224.428 343.2 226.728C343.1 229.028 344.5 230.228 346.6 230.628ZM358.7 274.228C356.4 274.328 354.5 276.228 354.7 278.028C355 280.128 356.1 281.728 358.4 281.828C360.4 281.928 362.2 279.928 362 277.728C361.9 275.428 360.5 274.328 358.7 274.228Z" fill="black"/>
<path d="M266.6 250.328C270.4 254.328 274.2 258.328 278.3 262.728C274.2 267.028 270.2 271.228 266.3 275.228C262 271.028 257.9 267.028 253.9 263.128C258 259.028 262 255.028 266.6 250.328ZM266.2 266.828C267.5 265.528 268.7 264.328 270 263.128C268.7 261.728 267.6 260.528 266.3 259.228C265 260.628 263.8 261.928 262.5 263.328C263.7 264.428 264.7 265.428 266.2 266.828Z" fill="black"/>
<path d="M506.5 262.828C502.8 266.728 499.2 270.728 495.4 274.528C493.8 276.128 492.7 274.428 491.8 273.528C489.6 271.328 487.5 269.028 485.4 266.728C484.3 265.528 483.3 264.128 482.1 262.628C485.6 258.828 489.6 254.628 493.7 250.228C498.2 254.628 502.3 258.728 506.5 262.828ZM490.2 262.928C492.6 263.428 492.4 267.728 495.4 265.528C496.7 264.628 498.5 263.128 496 260.928C492.9 258.228 492.3 261.328 490.2 262.928Z" fill="black"/>
<path d="M346.1 246.728C346.1 236.428 354 228.828 364.5 228.928C373.3 229.028 381.3 237.528 381.1 246.728C381 256.428 373 264.528 363.8 264.528C354.1 264.528 346.1 256.428 346.1 246.728Z" fill="white"/>
<path d="M346.6 230.628C344.5 230.228 343.1 229.028 343.2 226.728C343.3 224.428 344.7 223.128 346.9 223.028C348.9 222.928 350.9 225.128 350.8 227.328C350.6 229.928 348.8 230.428 346.6 230.628Z" fill="white"/>
<path d="M358.7 274.228C360.5 274.328 361.9 275.428 362.1 277.828C362.2 280.028 360.5 282.028 358.5 281.928C356.2 281.828 355.1 280.228 354.8 278.128C354.4 276.228 356.4 274.228 358.7 274.228Z" fill="white"/>
<path d="M266.2 266.828C264.8 265.428 263.7 264.428 262.5 263.328C263.8 261.928 264.9 260.628 266.3 259.228C267.5 260.528 268.6 261.728 270 263.128C268.6 264.328 267.5 265.428 266.2 266.828Z" fill="white"/>
<path d="M490.2 262.928C492.3 261.328 492.9 258.228 495.9 260.928C498.4 263.128 496.6 264.628 495.3 265.528C492.4 267.628 492.6 263.428 490.2 262.928Z" fill="white"/>
<path d="M236.1 407.128C238.1 403.228 241.4 402.328 245.2 404.228C252.4 407.828 256.1 409.528 263.5 412.628C267.3 414.228 268.5 416.228 267.3 419.128C267.2 419.228 267.2 419.328 267.2 419.428C266 422.528 263.6 423.228 259.7 421.528C254.4 419.328 251.7 418.128 246.4 415.628C245.3 418.028 244.7 419.228 243.6 421.628C247.3 423.428 249.1 424.228 252.9 425.828C257 427.628 258.1 429.728 257 432.428C257 432.528 256.9 432.528 256.9 432.628C255.7 435.528 253.3 436.128 249.2 434.328C245.6 432.728 243.8 431.928 240.2 430.228C238.9 433.028 238.2 434.428 236.9 437.228C235.3 440.528 232.5 441.328 228.7 439.428C227.9 439.028 227.4 438.828 226.6 438.428C223 436.628 222.3 433.328 224.3 429.428C229 420.628 231.3 416.128 236.1 407.128Z" fill="black"/>
<path d="M293.1 438.628C291.8 443.128 287.4 443.428 287.3 443.228C286.5 442.128 285.2 440.928 283.4 440.328C279.7 439.128 277.2 440.928 275.7 445.528C274.8 448.228 274.3 449.528 273.4 452.228C272.1 456.228 269.2 456.728 265.8 455.528C265.3 455.328 265 455.228 264.4 455.028C260.9 453.728 259 451.628 260.5 447.628C263.9 438.828 265.5 434.528 268.9 425.728C269.1 425.328 271.5 425.328 273.9 426.128C276.2 426.928 278.4 428.528 278.9 431.628C279.1 432.228 279 432.928 279 433.628C281.1 430.828 284.5 429.428 288.3 430.628C292.2 431.928 294.1 434.928 293.1 438.628Z" fill="black"/>
<path d="M311.6 436.928C321.2 439.128 326.9 446.328 325.4 454.828C325.4 455.028 325.3 455.128 325.3 455.328C324.9 457.028 324.2 457.928 322.2 457.628C313.7 456.128 309.4 455.228 300.9 453.028C300.9 453.328 300.9 453.628 301 453.928C301.3 456.928 303.8 459.228 307.7 460.028C311.7 460.928 314.8 460.028 316.5 458.228C316.6 458.128 322.7 459.428 321.9 463.728C321.6 465.728 319.9 467.128 317.1 467.928C314.3 468.728 310.3 468.528 305.5 467.528C296.4 465.628 287.6 458.028 290.6 447.928C293.2 439.228 301.9 434.728 311.6 436.928ZM309.8 444.128C306.5 443.328 303.5 444.928 302.4 447.928C307.2 449.128 309.6 449.628 314.4 450.628C314.9 447.228 313.2 444.928 309.8 444.128Z" fill="black"/>
<path d="M347.6 442.928C357.3 443.928 363.8 450.428 363.3 459.028C363.3 459.228 363.3 459.328 363.3 459.528C363.1 461.228 362.5 462.228 360.5 462.128C351.9 461.628 347.5 461.228 338.9 460.128C338.9 460.428 339 460.728 339.1 461.028C339.7 463.928 342.5 465.928 346.4 466.328C350.5 466.728 353.5 465.428 354.9 463.428C355 463.328 361.1 463.928 360.9 468.328C360.8 470.328 359.3 472.028 356.7 473.028C354 474.128 350.2 474.528 345.2 474.028C333.2 472.828 326.7 465.728 328.2 456.328C329.6 447.328 337.7 441.928 347.6 442.928ZM346.6 450.228C343.2 449.828 340.5 451.828 339.7 454.828C344.6 455.428 347 455.728 351.9 456.128C352 452.828 350.1 450.628 346.6 450.228Z" fill="black"/>
<path d="M379.2 469.728C379.2 459.028 379.3 453.628 379.3 442.928C379.3 438.628 381.7 436.228 385.8 436.128C390.1 436.028 392.2 435.928 396.5 435.728C408.1 435.128 414.9 439.028 416 448.228C417 457.428 410.9 462.928 398.4 463.628C396.3 463.728 395.2 463.828 393.1 463.828C393.2 466.028 393.2 467.128 393.3 469.428C393.4 472.928 391.4 475.128 387.3 475.228C386.5 475.228 386.1 475.228 385.2 475.228C381.4 475.328 379.2 473.428 379.2 469.728ZM403.2 449.528C403 446.228 400.7 444.628 396.6 444.828C394.8 444.928 394 444.928 392.2 445.028C392.4 449.028 392.4 451.028 392.6 455.128C394.5 455.028 395.5 455.028 397.4 454.928C401.4 454.728 403.4 452.728 403.2 449.528Z" fill="black"/>
<path d="M453.5 441.928C455.7 451.128 456.8 455.628 459 464.828C459.1 465.128 456.9 466.728 454.1 467.328C451.4 467.928 448.3 467.728 446.1 465.128C445.9 464.828 445.6 464.428 445.4 463.928C443.6 467.628 440.7 470.528 435 471.428C426 472.928 422 467.728 421.2 461.628C420.5 456.228 420.2 453.528 419.5 448.128C419 444.128 421.1 442.328 424.2 441.928C424.7 441.828 425 441.828 425.5 441.728C428.8 441.228 431.4 442.128 432.1 446.328C432.9 450.928 433.2 453.228 434 457.828C434.4 460.528 436.3 461.828 439.1 461.328C441.3 460.928 442.9 459.628 443.6 458.128C442.6 452.828 442 450.128 441 444.728C440.2 440.628 442.2 438.928 445.4 438.228C445.9 438.128 446.2 438.028 446.7 437.928C449.9 437.128 452.5 437.728 453.5 441.928Z" fill="black"/>
<path d="M498.3 438.128C501.6 446.728 498 455.128 488.7 458.228C484.1 459.828 479.8 458.828 477.3 456.428C478.5 460.428 479.1 462.428 480.3 466.328C481.5 470.228 479.4 472.328 475.9 473.328C475.3 473.528 475 473.528 474.5 473.728C470.8 474.728 467.9 474.228 466.8 470.028C463.9 458.828 461 447.528 458.1 436.328C458 435.928 460 434.528 462.4 433.828C465.1 433.128 468.5 433.328 470.7 436.628C470.8 436.828 470.9 437.028 471 437.328C471.4 433.528 474.2 430.128 478.7 428.628C487.2 425.828 494.8 429.128 498.3 438.128ZM486.5 442.428C485.2 438.528 481.9 437.028 478.2 438.228C475.4 439.128 473.8 441.028 473.3 443.328C473.9 445.228 474.2 446.128 474.7 448.028C475.7 450.928 478.8 452.028 482.2 450.928C486.1 449.628 487.8 446.228 486.5 442.428Z" fill="black"/>
<path d="M497.1 407.028C500.8 405.428 503.9 406.328 505.3 409.428C506.7 412.428 505.3 415.428 501.5 417.128C497.8 418.728 494.5 417.728 493.2 414.628C492 411.528 493.5 408.628 497.1 407.028ZM498.8 427.428C497.3 423.628 499 421.428 502 420.128C502.5 419.928 502.7 419.828 503.2 419.628C506.4 418.228 508.9 418.428 510.7 422.328C513.9 429.328 515.5 432.828 518.7 439.828C520.4 443.628 518.7 445.928 515.4 447.428C514.9 447.628 514.6 447.728 514.1 448.028C510.6 449.528 507.7 449.228 506.1 445.328C503.2 438.128 501.7 434.528 498.8 427.428Z" fill="black"/>
<path d="M524.7 437.028C519.6 426.328 514.5 415.628 509.3 404.828C509.1 404.428 510.7 402.728 512.9 401.628C516.1 400.028 520.5 399.728 523.8 405.928C528.2 414.228 532.6 422.528 537 430.828C538.9 434.528 537.3 437.028 534.1 438.628C533.6 438.928 533.3 439.028 532.8 439.328C529.5 440.928 526.5 440.828 524.7 437.028Z" fill="black"/>
</svg>
