<svg width="106" height="74" viewBox="0 0 106 74" fill="none" xmlns="http://www.w3.org/2000/svg">
<path d="M35.775 30.1412C35.4136 29.8666 35.0924 29.6333 34.798 29.3725C34.5035 29.1117 34.4634 28.7686 34.6374 28.4255C34.8114 28.0412 35.146 27.9176 35.5207 28.1098C35.9624 28.3568 36.3773 28.6176 36.8056 28.8921C37.0331 29.0431 37.1669 29.0568 37.4078 28.8647C38.2778 28.1784 39.1745 27.547 40.0846 26.8745C39.4957 26.1745 38.8934 25.4745 38.2912 24.7608C37.555 23.9098 36.8056 23.0588 36.0828 22.1941C35.7482 21.7961 35.7616 21.4117 36.0427 21.1235C36.3371 20.8215 36.7253 20.8078 37.1 21.1647C37.6755 21.7274 38.2109 22.3451 38.7462 22.949C39.6697 24.0059 40.5932 25.0764 41.53 26.1608C41.7843 26.0098 42.0252 25.8588 42.3331 25.6804C42.052 25.3235 41.7977 24.9666 41.53 24.6372C40.5396 23.4294 39.5492 22.2353 38.5722 21.0274C38.0636 20.4098 38.0101 19.9568 38.3982 19.6274C38.7596 19.3117 39.2682 19.4627 39.7366 20.0529C40.9813 21.5902 42.226 23.1274 43.4573 24.6921C43.6581 24.9529 43.8187 24.9804 44.0997 24.8431C44.6351 24.5823 45.2106 24.3627 45.8129 24.1019C45.7593 23.8549 45.6924 23.5666 45.6389 23.2921C45.572 22.9764 45.5184 22.6608 45.4649 22.3451C45.3846 21.8921 45.5184 21.6314 45.8798 21.5215C46.2545 21.4117 46.6427 21.5902 46.7765 21.9745C46.9237 22.4 47.0174 22.8529 47.1379 23.2921C47.1646 23.4019 47.2048 23.5255 47.2316 23.6215C48.2353 23.4706 49.2124 23.3059 50.2295 23.1549C50.2295 22.4274 50.2162 21.6863 50.2295 20.9588C50.2429 20.3137 50.8184 19.998 51.327 20.3549C51.4876 20.4647 51.6081 20.7392 51.6215 20.9588C51.6616 21.7 51.6348 22.4274 51.6348 23.1412C52.6654 23.3196 53.6558 23.4843 54.6596 23.6627C54.8068 23.1137 54.9407 22.551 55.1013 22.0019C55.2217 21.6176 55.5831 21.4117 55.9311 21.4941C56.2657 21.5764 56.4664 21.9333 56.4129 22.3451C56.3861 22.5372 56.3326 22.7431 56.2924 22.9353C56.2255 23.251 56.172 23.5666 56.0783 23.8686C56.0247 24.0608 56.0649 24.1568 56.2523 24.2392C56.8947 24.5 57.5371 24.7745 58.1528 25.0353C59.4109 23.4706 60.6689 21.9059 61.927 20.3412C62.1144 20.1078 62.3151 19.8745 62.5427 19.6686C62.8371 19.4078 63.2788 19.449 63.5331 19.7372C63.7874 20.0117 63.8008 20.4098 63.5598 20.7117C62.5962 21.9196 61.646 23.1137 60.6823 24.3215C60.321 24.7745 59.9596 25.2274 59.5581 25.7353C59.8124 25.9137 60.0533 26.0784 60.3343 26.2568C61.3381 25.049 62.3285 23.8686 63.3323 22.6745C63.7472 22.1941 64.1755 21.7137 64.6038 21.2608C64.9785 20.8627 65.38 20.8078 65.7146 21.0686C66.1028 21.3706 66.1697 21.7549 65.8485 22.1392C65.0588 23.0863 64.2558 24.0333 63.4528 24.9666C62.904 25.6117 62.3419 26.2431 61.753 26.9294C62.73 27.6431 63.6937 28.3568 64.6975 29.0843C65.1927 28.7823 65.7013 28.4529 66.2232 28.151C66.6381 27.9176 66.9593 28 67.2002 28.3843C67.401 28.7 67.3341 29.1255 67.0129 29.3863C66.8523 29.5235 66.6783 29.647 66.5043 29.7568C66.3437 29.8666 66.1831 29.9764 65.9689 30.1137C66.3972 30.4706 66.7853 30.7863 67.1601 31.1157C68.6725 32.4882 70.1982 33.8333 71.6838 35.2333C72.5002 36.0019 72.5136 36.1255 71.6704 36.8666C69.7164 38.5961 67.7222 40.2568 65.7548 41.9588C65.7146 41.9863 65.6745 42.0274 65.5942 42.0961C65.9154 42.3294 66.2232 42.549 66.5311 42.7686C66.7452 42.9333 66.9593 43.0843 67.1467 43.2627C67.4278 43.551 67.4144 43.9902 67.1601 44.2921C66.8924 44.6078 66.5712 44.649 66.2232 44.4019C65.6076 43.9627 64.9919 43.5098 64.3629 43.0568C63.5331 43.6196 62.6899 44.1823 61.8066 44.7725C61.9672 44.9647 62.1144 45.1568 62.275 45.349C63.4662 46.7902 64.6707 48.2313 65.8619 49.6725C66.1697 50.0568 66.1563 50.4961 65.8619 50.7843C65.5139 51.1137 65.1258 51.1137 64.7644 50.6882C63.8811 49.6725 63.0379 48.6294 62.1679 47.6137C61.5657 46.8863 60.9634 46.1725 60.3477 45.4451C60.1336 45.5823 59.9328 45.7196 59.7053 45.8706C60.08 46.3647 60.4414 46.8314 60.8028 47.3117C61.7396 48.5745 62.6765 49.8372 63.5866 51.1C63.7205 51.2921 63.8409 51.5941 63.8008 51.8C63.7472 52.0333 63.5331 52.2941 63.3323 52.4176C63.0513 52.5823 62.7568 52.4314 62.5694 52.1843C61.9538 51.4019 61.3515 50.6059 60.7492 49.8098C60.0265 48.8215 59.3038 47.8333 58.5944 46.8314C58.4338 46.6117 58.3134 46.5431 58.0591 46.6529C57.43 46.9137 56.7876 47.1333 56.0917 47.3804C56.2121 47.8608 56.3593 48.3412 56.4664 48.8353C56.5869 49.3568 56.3058 49.7961 55.8641 49.8098C55.5028 49.8235 55.2753 49.6176 55.1682 49.2745C55.021 48.7941 54.8603 48.3137 54.7265 47.8333C53.7361 47.998 52.7591 48.1627 51.7151 48.3412C51.7151 48.8078 51.7285 49.3019 51.7151 49.8098C51.7018 50.4137 51.2066 50.7294 50.6846 50.4961C50.3902 50.3588 50.3098 50.098 50.3098 49.8098C50.3098 49.549 50.3098 49.3019 50.3098 49.0412C50.3098 48.8078 50.3098 48.5608 50.3098 48.3274C49.2927 48.1764 48.3023 48.0255 47.2717 47.8608C47.1646 48.2588 47.0442 48.698 46.9237 49.1372C46.83 49.4804 46.6427 49.7412 46.2679 49.7961C45.8129 49.851 45.4515 49.4804 45.5452 49C45.6389 48.4784 45.7593 47.9568 45.8664 47.4353C45.1437 47.147 44.4076 46.8588 43.6313 46.5568C43.096 47.298 42.574 48.0392 42.0386 48.7804C41.2088 49.8921 40.379 50.9902 39.5492 52.0882C39.3351 52.3627 39.0407 52.5961 38.7061 52.4451C38.5053 52.349 38.2778 52.1019 38.2376 51.8823C38.1975 51.649 38.3045 51.347 38.4518 51.1412C38.9871 50.3588 39.5492 49.6039 40.1114 48.849C40.7672 47.9706 41.423 47.1059 42.0788 46.2274C42.1457 46.1313 42.2126 46.0353 42.2929 45.898C42.0788 45.747 41.878 45.6098 41.6371 45.4451C41.4765 45.651 41.3293 45.8431 41.1687 46.0353C39.8838 47.5725 38.6124 49.1372 37.3141 50.647C37.1401 50.8392 36.7922 50.9627 36.5245 50.949C36.1899 50.949 36.0025 50.6196 35.9891 50.3039C35.9758 50.098 36.0427 49.8372 36.1765 49.6863C37.274 48.3274 38.3982 46.9686 39.5091 45.6235C39.7232 45.3627 39.9508 45.0882 40.1917 44.7863C39.3217 44.2098 38.4651 43.6333 37.6354 43.0843C36.9795 43.5235 36.3505 43.9627 35.7081 44.3745C35.3199 44.6215 34.9987 44.5804 34.7712 44.2921C34.5303 43.9627 34.5303 43.4686 34.8515 43.1941C35.2263 42.8647 35.6412 42.5764 36.0427 42.2745C36.1096 42.2333 36.1631 42.1784 36.2702 42.1098C35.6278 41.5882 34.9987 41.0941 34.4098 40.5725C32.951 39.2686 31.5056 37.951 30.0735 36.6196C29.6452 36.2215 29.6586 36.098 30.0601 35.6588C31.7331 33.847 33.473 32.1039 35.3869 30.5529C35.4002 30.4019 35.5742 30.2921 35.775 30.1412ZM62.0876 35.7549C61.9806 34.9176 61.9672 34.0666 61.753 33.2568C60.8028 29.4961 58.5141 26.9294 54.9942 25.5294C53.0937 24.7745 51.0995 24.6372 49.0919 24.9392C45.9066 25.4059 43.4038 27.0255 41.597 29.7431C40.0444 32.0902 39.5359 34.6843 39.9508 37.4843C40.379 40.3804 41.771 42.7 44.0328 44.4294C46.4419 46.2549 49.199 46.9412 52.1836 46.598C55.4626 46.2274 58.126 44.7039 60.08 41.9863C61.3917 40.147 62.0609 38.0608 62.0876 35.7549ZM39.8437 42.5353C39.4957 41.8764 39.1611 41.2451 38.8265 40.6137C38.7596 40.4902 38.6927 40.3529 38.599 40.2568C38.1975 39.8588 37.7692 39.4882 37.3677 39.1039C36.6316 38.3902 36.6182 38.5961 37.3944 37.8274C38.0502 37.1686 38.5187 36.5235 38.3179 35.5353C38.3179 35.5078 38.3313 35.4804 38.3179 35.4529C38.2376 35.2608 38.1841 35.0274 38.0636 34.8764C37.6621 34.4098 37.2205 33.9843 36.7654 33.5039C37.1134 33.1608 37.4212 32.8863 37.7023 32.5568C38.1707 32.0215 38.8131 31.651 39.0942 30.9235C39.2949 30.4157 39.6028 29.949 39.8571 29.4686C39.8972 29.3863 39.9374 29.3039 40.0043 29.1666C38.1172 30.2921 32.3889 35.2608 31.9606 36.1392C33.2321 37.5941 38.6391 41.9725 39.8437 42.5353ZM61.9136 42.5902C64.8179 40.6686 67.3609 38.3902 69.9038 36.0706C67.4144 33.5313 64.7912 31.2941 61.9806 29.2627C62.275 29.8941 62.5962 30.4843 62.904 31.0882C63.0111 31.2804 63.078 31.5137 63.2252 31.6647C63.8275 32.2686 64.4432 32.8313 65.0588 33.4078C64.7242 33.7647 64.4432 34.0941 64.122 34.3823C63.7071 34.7529 63.426 35.1647 63.5331 35.7686C63.5732 36.0294 63.5197 36.3039 63.5465 36.5784C63.5598 36.7294 63.6268 36.9078 63.7205 37.0176C64.1354 37.4843 64.577 37.9372 65.0321 38.4314C64.5235 38.9117 64.055 39.3647 63.5866 39.8039C63.3859 39.9961 63.1182 40.1608 62.9843 40.3941C62.623 41.0941 62.3018 41.8078 61.9136 42.5902Z" fill="white"/>
<path d="M72.8884 32.2274C71.9783 32.2 71.3225 31.4862 71.3493 30.5666C71.3761 29.6745 72.1122 28.9607 72.9554 28.9882C73.8922 29.0294 74.5213 29.7294 74.4945 30.7039C74.4811 31.5137 73.7182 32.2411 72.8884 32.2274Z" fill="white"/>
<path d="M27.2763 30.649C27.2629 29.6745 27.892 29.0019 28.8556 28.9882C29.672 28.9608 30.4082 29.7294 30.4215 30.6215C30.4349 31.5 29.7523 32.2274 28.9092 32.2274C27.9723 32.2274 27.2897 31.5823 27.2763 30.649Z" fill="white"/>
<path d="M74.4944 42.549C74.4944 43.3863 73.7985 44.1137 72.9687 44.1137C72.1121 44.1275 71.376 43.3863 71.376 42.5216C71.376 41.5882 72.0318 40.8882 72.9017 40.8745C73.8252 40.8745 74.481 41.5745 74.4944 42.549Z" fill="white"/>
<path d="M27.2896 42.4666C27.303 41.547 27.9856 40.8882 28.9091 40.9019C29.7121 40.9019 30.4348 41.6843 30.4215 42.5353C30.4081 43.4412 29.672 44.1137 28.7217 44.1C27.9187 44.0863 27.2763 43.3588 27.2896 42.4666Z" fill="white"/>
<path d="M46.3215 51.251C46.2412 51.5255 46.1876 51.6902 46.1341 51.8412C45.7058 52.9529 45.2775 54.051 44.8359 55.1627C44.7689 55.3549 44.6752 55.5333 44.5816 55.698C44.3942 56 44.1131 56.0961 43.7919 55.9862C43.4975 55.8764 43.3502 55.6157 43.3636 55.2862C43.377 55.0666 43.4172 54.8333 43.4975 54.6274C43.9258 53.4745 44.3808 52.3353 44.8359 51.1961C44.9162 51.0039 45.0366 50.7706 45.1972 50.6882C45.398 50.5921 45.7058 50.551 45.8798 50.647C46.0805 50.7843 46.1876 51.0725 46.3215 51.251Z" fill="white"/>
<path d="M55.5161 51.1549C55.6633 50.9765 55.7838 50.7294 55.9712 50.6608C56.1719 50.5922 56.4931 50.6196 56.6404 50.7431C56.8545 50.9216 57.0017 51.2235 57.1088 51.498C57.5237 52.5549 57.9118 53.6118 58.3133 54.6824C58.3535 54.8059 58.407 54.9294 58.4204 55.0667C58.5007 55.4922 58.3133 55.8353 57.952 55.9725C57.604 56.0961 57.2828 55.9451 57.1088 55.5196C56.6002 54.2157 56.1184 52.898 55.6366 51.5804C55.5964 51.4706 55.5964 51.3471 55.583 51.2235C55.5696 51.2098 55.5429 51.1824 55.5161 51.1549Z" fill="white"/>
<path d="M44.0462 15.3588C44.3808 15.3588 44.6217 15.5372 44.7422 15.8529C44.9295 16.2921 45.0901 16.745 45.2641 17.198C45.572 18.0078 45.8932 18.8176 46.1876 19.6274C46.3348 20.0392 46.201 20.4097 45.8798 20.5882C45.5318 20.7666 45.1035 20.6431 44.9295 20.2313C44.528 19.3117 44.1666 18.3784 43.8053 17.445C43.6581 17.047 43.5108 16.649 43.3904 16.2372C43.2699 15.7705 43.6045 15.3588 44.0462 15.3588Z" fill="white"/>
<path d="M55.5697 19.9294C55.5965 19.8059 55.6098 19.6686 55.6634 19.5451C56.0649 18.4608 56.4664 17.3627 56.8813 16.2784C56.9616 16.0725 57.0687 15.8667 57.1891 15.6745C57.3765 15.3725 57.6442 15.2765 57.9654 15.3863C58.3134 15.5098 58.4874 15.798 58.4338 16.1549C58.4071 16.3196 58.3669 16.498 58.3 16.649C57.8851 17.7333 57.4568 18.8176 57.0285 19.8882C56.9616 20.0529 56.8679 20.2314 56.7608 20.3686C56.5601 20.6294 56.2523 20.7255 55.9846 20.5745C55.7838 20.451 55.65 20.1902 55.4894 19.998C55.5161 19.9706 55.5429 19.9569 55.5697 19.9294Z" fill="white"/>
<path d="M71.6036 26.0647C71.55 26.1608 71.4831 26.3941 71.3225 26.5314C70.6667 27.0667 69.9975 27.5745 69.3283 28.0824C69.1677 28.2059 69.0071 28.3157 68.8465 28.4118C68.4048 28.7 67.9632 28.6588 67.7089 28.3294C67.4679 28 67.5081 27.5196 67.923 27.1902C68.6725 26.6 69.4354 26.051 70.225 25.5157C70.4525 25.3647 70.747 25.2823 71.0281 25.2823C71.3626 25.2823 71.6036 25.6118 71.6036 26.0647Z" fill="white"/>
<path d="M40.8475 14.549C40.8207 15.4274 40.1649 16.0588 39.3217 16.0176C38.5588 15.9764 37.97 15.2902 37.9967 14.4666C38.0235 13.6156 38.6392 13.0254 39.4689 13.0392C40.2318 13.0666 40.8743 13.7666 40.8475 14.549Z" fill="white"/>
<path d="M30.756 47.4764C30.6356 47.3803 30.408 47.2843 30.301 47.1058C30.127 46.8313 30.1404 46.4882 30.3947 46.2548C30.7962 45.8843 31.2378 45.5274 31.6661 45.198C32.081 44.8823 32.5093 44.5803 32.9644 44.2921C33.4462 43.9764 33.9548 44.1411 34.1555 44.6078C34.276 44.9235 34.2358 45.2254 33.9815 45.4039C33.058 46.0764 32.1212 46.7352 31.1843 47.3803C31.0906 47.449 30.9702 47.4352 30.756 47.4764Z" fill="white"/>
<path d="M62.3419 16.0039C61.5924 16.0039 60.95 15.3313 60.95 14.5627C60.95 13.7255 61.579 13.0392 62.3553 13.0392C63.1583 13.0529 63.7873 13.7117 63.7873 14.5353C63.8007 15.3451 63.1449 16.0039 62.3419 16.0039Z" fill="white"/>
<path d="M34.1957 27.7529C34.1957 28.3705 33.7139 28.7548 33.2588 28.5764C32.9376 28.4392 32.6432 28.2333 32.3621 28.0274C31.7331 27.5607 31.0907 27.0803 30.4884 26.5725C30.1404 26.2705 30.0869 25.9274 30.301 25.6254C30.5152 25.3235 30.9434 25.1725 31.278 25.4058C32.1748 26.0097 33.0447 26.6548 33.9013 27.2999C34.0619 27.4097 34.1288 27.6431 34.1957 27.7529Z" fill="white"/>
<path d="M71.6571 46.7902C71.6036 47.298 71.2155 47.6411 70.7604 47.4764C70.3455 47.3255 69.9574 47.0647 69.5692 46.8039C69.0874 46.4745 68.6324 46.1176 68.1773 45.7608C68.0569 45.6647 67.9364 45.5549 67.8293 45.4313C67.5349 45.1157 67.5081 44.7862 67.749 44.4568C67.9766 44.1549 68.3245 44.0451 68.6591 44.2647C69.3685 44.7313 70.0644 45.2392 70.7738 45.7333C70.9879 45.8843 71.2021 46.049 71.3761 46.2411C71.4965 46.3921 71.5634 46.598 71.6571 46.7902Z" fill="white"/>
<path d="M50.8854 7.96075C51.6751 7.96075 52.2907 8.60585 52.3041 9.41566C52.3041 10.2255 51.6483 10.898 50.8586 10.898C50.1091 10.898 49.4801 10.2392 49.4801 9.44311C49.4935 8.5784 50.0824 7.96075 50.8854 7.96075Z" fill="white"/>
<path d="M50.2028 14.0823C50.2028 13.7118 50.1894 13.3274 50.2028 12.9569C50.2429 12.4216 50.4838 12.1745 50.9255 12.1882C51.3538 12.2157 51.6081 12.4902 51.6081 12.998C51.6215 13.6843 51.6081 14.3706 51.5947 15.0569C51.5813 15.5372 51.2467 15.9078 50.8586 15.8941C50.4571 15.8804 50.2028 15.5647 50.2028 15.0569C50.1894 14.7274 50.1894 14.4118 50.2028 14.0823Z" fill="white"/>
<path d="M50.2162 56.7686C50.2162 56.4255 50.2162 56.0686 50.2162 55.7255C50.2296 55.2314 50.4705 54.9706 50.8988 54.9706C51.327 54.9706 51.5947 55.2451 51.6081 55.7118C51.6215 56.4255 51.6215 57.1392 51.6081 57.8529C51.5947 58.3608 51.3404 58.6353 50.8988 58.6353C50.4705 58.6353 50.2296 58.3471 50.2296 57.8392C50.2028 57.4686 50.2028 57.1118 50.2162 56.7686Z" fill="white"/>
<path d="M51.5545 18.0078C51.5545 18.2411 51.5679 18.4607 51.5545 18.6941C51.5278 19.0784 51.22 19.3255 50.8586 19.3117C50.5106 19.298 50.2563 19.0509 50.2563 18.6666C50.2429 18.2 50.2563 17.7333 50.2563 17.2666C50.2563 16.9098 50.4169 16.6764 50.7783 16.649C51.153 16.6078 51.4609 16.8274 51.5412 17.1843C51.5545 17.2255 51.5545 17.2666 51.5545 17.3078C51.5679 17.5274 51.5679 17.7607 51.5545 18.0078Z" fill="white"/>
<path d="M50.2697 52.8156C50.2697 52.5686 50.2429 52.3352 50.2697 52.0882C50.3099 51.7725 50.4437 51.5254 50.7917 51.4843C51.153 51.4431 51.501 51.6352 51.5278 51.9921C51.5679 52.5548 51.5813 53.1176 51.501 53.6803C51.4609 53.996 51.153 54.1745 50.8051 54.1333C50.4839 54.0921 50.2965 53.8588 50.2697 53.5294C50.2563 53.296 50.2697 53.049 50.2697 52.8156Z" fill="white"/>
<path d="M74.0929 36.3451C74.0929 35.8098 74.4676 35.4392 75.0164 35.4392C75.5651 35.4392 75.9666 35.8235 75.98 36.3725C75.9934 36.9078 75.5384 37.3882 75.0164 37.3745C74.5078 37.3608 74.0929 36.9078 74.0929 36.3451Z" fill="white"/>
<path d="M68.0836 20.3686C67.5349 20.3549 67.1735 19.9568 67.1869 19.3666C67.2003 18.8314 67.6018 18.4608 68.1371 18.4745C68.6725 18.4882 69.1142 18.9274 69.1008 19.4215C69.0874 19.9568 68.6457 20.3823 68.0836 20.3686Z" fill="white"/>
<path d="M27.7581 36.3725C27.7581 36.9216 27.3432 37.3608 26.8346 37.3745C26.326 37.3745 25.8977 36.9216 25.8844 36.4C25.871 35.8235 26.2725 35.4255 26.848 35.4255C27.3432 35.4255 27.7581 35.851 27.7581 36.3725Z" fill="white"/>
<path d="M32.7771 19.4078C32.7637 18.8588 33.1518 18.4608 33.6738 18.4608C34.1556 18.4608 34.6107 18.9274 34.624 19.449C34.624 19.9431 34.1958 20.3823 33.7006 20.396C33.1652 20.3823 32.7771 19.9706 32.7771 19.4078Z" fill="white"/>
<path d="M47.526 11.3509C47.5126 11.9 47.0977 12.298 46.5623 12.2843C46.0939 12.2705 45.6924 11.8039 45.6924 11.2686C45.7058 10.7607 46.1073 10.349 46.6025 10.3627C47.1646 10.4039 47.5394 10.7882 47.526 11.3509Z" fill="white"/>
<path d="M47.5127 18.3784C47.5127 18.1999 47.4591 17.9941 47.5261 17.8705C47.6198 17.6921 47.8071 17.4725 47.9811 17.4588C48.1685 17.4313 48.5299 17.5823 48.5566 17.7058C48.6905 18.2686 48.7841 18.845 48.7975 19.4352C48.8109 19.696 48.5566 19.8882 48.2354 19.8882C47.9276 19.8882 47.7268 19.7509 47.6599 19.449C47.5796 19.0921 47.5395 18.7352 47.4725 18.3784C47.4859 18.3784 47.4993 18.3784 47.5127 18.3784Z" fill="white"/>
<path d="M56.1719 11.3372C56.1719 11.8999 55.7972 12.3117 55.2886 12.298C54.7934 12.298 54.3785 11.8588 54.3651 11.3372C54.3651 10.8156 54.7532 10.4039 55.2484 10.4039C55.8106 10.4176 56.1585 10.7745 56.1719 11.3372Z" fill="white"/>
<path d="M58.7952 11.5431C59.3171 11.5431 59.7186 11.9137 59.732 12.4078C59.7454 12.9705 59.3439 13.4098 58.8353 13.4098C58.3267 13.4098 57.9386 12.9843 57.9386 12.449C57.9386 11.9549 58.3267 11.5568 58.7952 11.5431Z" fill="white"/>
<path d="M53.0134 19.0235C53.0535 18.749 53.0937 18.3373 53.1874 17.9392C53.2677 17.5961 53.4952 17.4039 53.8566 17.4725C54.1912 17.5274 54.3919 17.7882 54.3518 18.1725C54.3116 18.5569 54.2715 18.9412 54.1912 19.3255C54.0841 19.7922 53.7361 20.0255 53.3748 19.8882C53.0803 19.7784 52.9866 19.6 53.0134 19.0235Z" fill="white"/>
<path d="M42.0789 12.4627C42.0789 11.9137 42.4268 11.5431 42.9756 11.5294C43.4574 11.5294 43.8723 11.9411 43.8723 12.4352C43.8857 12.9294 43.444 13.3823 42.9488 13.3823C42.467 13.396 42.0922 12.998 42.0789 12.4627Z" fill="white"/>
<path d="M48.7841 52.0882C48.7573 52.3627 48.7305 52.651 48.6904 52.9255C48.6368 53.3921 48.3424 53.6392 47.9275 53.5843C47.5795 53.5431 47.4189 53.2412 47.4858 52.7608C47.526 52.4862 47.526 52.198 47.5661 51.9235C47.6464 51.3745 47.8606 51.1549 48.222 51.1823C48.6101 51.2235 48.8108 51.5392 48.7841 52.0882Z" fill="white"/>
<path d="M54.3518 52.7059C54.3919 53.2412 54.218 53.5157 53.8967 53.5843C53.5621 53.6529 53.2677 53.447 53.1874 53.0627C53.1071 52.651 53.0536 52.2255 53.0268 51.8C53.0134 51.4706 53.2008 51.2372 53.522 51.1823C53.8298 51.1274 54.1109 51.3333 54.1778 51.6765C54.2715 52.0608 54.3116 52.4588 54.3518 52.7059Z" fill="white"/>
<path d="M35.1193 16.9098C35.1326 16.347 35.4806 16.0039 36.0427 16.0176C36.4978 16.0176 36.8993 16.4568 36.8993 16.9372C36.8993 17.4588 36.4978 17.8568 36.0026 17.8431C35.5074 17.8294 35.1193 17.4176 35.1193 16.9098Z" fill="white"/>
<path d="M65.7549 17.8431C65.273 17.8157 64.8983 17.4039 64.9251 16.9098C64.9518 16.3745 65.3266 15.9902 65.8352 16.0176C66.317 16.0313 66.7319 16.4843 66.7185 16.9647C66.6917 17.4313 66.2099 17.8706 65.7549 17.8431Z" fill="white"/>
<path d="M32.0275 23.1823C31.5323 23.1686 31.1442 22.7568 31.1576 22.2352C31.1709 21.7823 31.5591 21.3843 32.0007 21.398C32.5093 21.4117 32.8841 21.796 32.8707 22.2901C32.8573 22.7705 32.4692 23.1823 32.0275 23.1823Z" fill="white"/>
<path d="M69.7432 23.1823C69.3016 23.1823 68.9135 22.7431 68.9135 22.249C68.9135 21.8235 69.3283 21.398 69.7432 21.398C70.2117 21.4117 70.6132 21.7823 70.6132 22.1941C70.5998 22.7706 70.2518 23.1823 69.7432 23.1823Z" fill="white"/>
<path d="M70.9209 50.4549C71.3626 50.4686 71.6437 50.7569 71.6437 51.1686C71.6303 51.5804 71.2823 51.9647 70.9209 51.9647C70.506 51.9647 70.1715 51.6216 70.1848 51.1961C70.1848 50.7569 70.4927 50.4412 70.9209 50.4549Z" fill="white"/>
<path d="M30.5821 50.4412C30.9569 50.4412 31.2647 50.7706 31.2647 51.1686C31.2513 51.5667 30.9167 51.9372 30.5554 51.9372C30.1806 51.9372 29.8326 51.5804 29.8326 51.1823C29.8193 50.798 30.1806 50.4412 30.5821 50.4412Z" fill="white"/>
<path d="M42.7882 19.2706C42.7882 19.6411 42.467 19.9568 42.1056 19.9568C41.7576 19.9568 41.4766 19.6549 41.4766 19.2706C41.4766 18.8862 41.771 18.5706 42.1324 18.5706C42.5071 18.5706 42.7882 18.8725 42.7882 19.2706Z" fill="white"/>
<path d="M58.4607 49.8098C58.822 49.8098 59.1566 50.1392 59.1566 50.4823C59.1566 50.8529 58.8488 51.1823 58.4874 51.1823C58.1261 51.1823 57.8316 50.8666 57.8182 50.4823C57.8182 50.1254 58.1261 49.8098 58.4607 49.8098Z" fill="white"/>
<path d="M59.103 21.096C59.103 21.4529 58.7551 21.796 58.4205 21.7823C58.0859 21.7686 57.8048 21.4255 57.8048 21.0274C57.8048 20.6706 58.1126 20.3549 58.4472 20.3686C58.8354 20.396 59.1164 20.7117 59.103 21.096Z" fill="white"/>
<path d="M43.2432 49.796C43.6179 49.7823 43.8856 50.0568 43.899 50.4411C43.9124 50.8392 43.6581 51.1411 43.3101 51.1549C42.9621 51.1686 42.6275 50.8529 42.6141 50.4823C42.6275 50.098 42.8952 49.8098 43.2432 49.796Z" fill="white"/>
<path d="M36.7119 25.6666C36.6985 26.0509 36.4442 26.3392 36.0828 26.3392C35.7081 26.3392 35.4538 26.0372 35.4672 25.6254C35.4806 25.2411 35.7616 24.9666 36.123 24.9804C36.4843 24.9804 36.7253 25.2549 36.7119 25.6666Z" fill="white"/>
<path d="M59.6652 18.5706C60.0266 18.5706 60.3344 18.9 60.321 19.2706C60.3076 19.6411 59.9864 19.9568 59.6385 19.9431C59.2905 19.9294 59.0094 19.6137 59.0228 19.2431C59.0496 18.8862 59.3306 18.5706 59.6652 18.5706Z" fill="white"/>
<path d="M65.728 26.298C65.3667 26.298 65.099 26.0098 65.099 25.6255C65.099 25.2411 65.3934 24.9392 65.7414 24.9529C66.1028 24.9666 66.3838 25.2686 66.3838 25.6255C66.3838 25.996 66.076 26.298 65.728 26.298Z" fill="white"/>
<path d="M65.728 47.0784C65.38 47.0921 65.0989 46.8039 65.0856 46.4196C65.0722 46.0353 65.3399 45.747 65.7012 45.7333C66.076 45.7196 66.3838 46.0215 66.3704 46.4058C66.3704 46.749 66.0626 47.0647 65.728 47.0784Z" fill="white"/>
<path d="M43.9124 21.1097C43.899 21.4666 43.5912 21.7823 43.2566 21.7686C42.922 21.7548 42.6276 21.4254 42.6409 21.0686C42.6543 20.7117 42.9622 20.3686 43.2834 20.3823C43.6313 20.396 43.9258 20.7392 43.9124 21.1097Z" fill="white"/>
<path d="M41.5033 52.3078C41.5033 51.9372 41.7576 51.649 42.0922 51.649C42.4803 51.6353 42.7748 51.9098 42.7881 52.2529C42.8015 52.6098 42.4535 53.0078 42.119 53.0215C41.8111 53.0215 41.5033 52.6784 41.5033 52.3078Z" fill="white"/>
<path d="M60.3344 52.2666C60.3478 52.6235 59.9864 53.0078 59.6384 53.0078C59.344 53.0078 59.0495 52.7059 59.0361 52.3764C59.0228 51.9647 59.2771 51.6627 59.6518 51.649C60.0399 51.649 60.321 51.896 60.3344 52.2666Z" fill="white"/>
<path d="M54.2715 54.3255C54.6328 54.3255 54.8604 54.5862 54.8604 54.9843C54.8604 55.3549 54.5392 55.6706 54.1778 55.6568C53.8566 55.6431 53.5889 55.3549 53.6023 55.0117C53.6157 54.6137 53.9101 54.3117 54.2715 54.3255Z" fill="white"/>
<path d="M54.2313 15.4137C54.6061 15.4137 54.8604 15.6745 54.8738 16.0588C54.8871 16.4019 54.5659 16.7176 54.2179 16.7176C53.8833 16.7039 53.6023 16.4157 53.6023 16.0725C53.5889 15.6882 53.8566 15.4274 54.2313 15.4137Z" fill="white"/>
<path d="M34.8649 24.198C34.8649 24.6098 34.5973 24.898 34.2225 24.898C33.8745 24.898 33.6202 24.6098 33.6202 24.2117C33.6202 23.8549 33.8879 23.5941 34.2493 23.5941C34.6106 23.5804 34.8649 23.8411 34.8649 24.198Z" fill="white"/>
<path d="M36.7252 46.3921C36.7118 46.7901 36.4174 47.0784 36.056 47.0646C35.708 47.0509 35.4671 46.749 35.4805 46.3509C35.4939 45.9803 35.7482 45.7333 36.1095 45.7333C36.4441 45.7607 36.7252 46.0627 36.7252 46.3921Z" fill="white"/>
<path d="M32.255 42.6725C31.9472 42.6725 31.6661 42.3431 31.6528 41.9999C31.6394 41.6294 31.9472 41.3137 32.2818 41.3274C32.603 41.3411 32.8841 41.6431 32.8841 41.9999C32.8841 42.3568 32.5896 42.6725 32.255 42.6725Z" fill="white"/>
<path d="M70.1313 30.6215C70.1313 30.9921 69.8503 31.3353 69.5291 31.3353C69.1945 31.3353 68.9 31.0333 68.9 30.649C68.9 30.2784 69.1543 29.9902 69.4889 29.9902C69.8503 29.9902 70.1313 30.2647 70.1313 30.6215Z" fill="white"/>
<path d="M47.4993 15.3862C47.8339 15.3862 48.1685 15.7156 48.1953 16.0862C48.2086 16.3882 47.9008 16.7176 47.6198 16.7313C47.2316 16.7451 46.9639 16.4705 46.9639 16.0588C46.9372 15.6882 47.1781 15.4 47.4993 15.3862Z" fill="white"/>
<path d="M48.1953 54.9705C48.2086 55.3274 47.941 55.6294 47.6064 55.6431C47.245 55.6568 46.9506 55.3686 46.9506 54.998C46.9506 54.6137 47.1915 54.3254 47.5261 54.3254C47.874 54.3254 48.1819 54.6137 48.1953 54.9705Z" fill="white"/>
<path d="M70.1447 42C70.1313 42.3431 69.8503 42.6451 69.5291 42.6314C69.1677 42.6314 68.9 42.3431 68.9 41.9588C68.9 41.5745 69.1543 41.3137 69.5023 41.3137C69.8637 41.3274 70.1581 41.6431 70.1447 42Z" fill="white"/>
<path d="M67.5482 23.5804C67.8962 23.5804 68.1639 23.8549 68.1772 24.198C68.1906 24.5686 67.9096 24.8843 67.5616 24.8843C67.2002 24.898 66.9459 24.6098 66.9459 24.2118C66.9326 23.8549 67.1868 23.5941 67.5482 23.5804Z" fill="white"/>
<path d="M32.8975 30.6765C32.8841 31.0471 32.5897 31.349 32.2417 31.3353C31.9205 31.3216 31.6394 30.9647 31.6528 30.6078C31.6796 30.2373 31.9472 29.9902 32.2952 30.0176C32.67 30.0314 32.9109 30.3059 32.8975 30.6765Z" fill="white"/>
<path d="M68.1639 47.8333C68.1639 48.1902 67.8561 48.5058 67.5349 48.5196C67.2003 48.5196 66.9326 48.2451 66.9326 47.8745C66.9326 47.5176 67.1869 47.2294 67.5349 47.2156C67.8829 47.2019 68.1639 47.4764 68.1639 47.8333Z" fill="white"/>
<path d="M34.2359 48.5058C33.8879 48.5058 33.647 48.2725 33.647 47.9019C33.6336 47.5039 33.8879 47.2156 34.2493 47.2156C34.5839 47.2156 34.8248 47.4901 34.8381 47.8745C34.8381 48.2176 34.5705 48.4921 34.2359 48.5058Z" fill="white"/>
<path d="M62.0876 35.7549C62.0742 38.0608 61.4051 40.1333 60.0934 41.9725C58.1394 44.7039 55.476 46.2137 52.197 46.5843C49.2124 46.9274 46.4553 46.2412 44.0462 44.4157C41.771 42.7 40.3924 40.3667 39.9642 37.4706C39.5493 34.6706 40.0578 32.0627 41.6104 29.7294C43.4038 27.0118 45.92 25.3922 49.1053 24.9255C51.1129 24.6235 53.1071 24.7608 55.0076 25.5157C58.5275 26.9157 60.8162 29.4961 61.7664 33.2431C61.9538 34.0667 61.9806 34.9176 62.0876 35.7549ZM42.8684 35.8922C42.8551 39.9 46.0672 43.8118 50.5508 43.8941C55.7437 43.9902 58.9023 40.0098 58.9558 35.9059C59.0227 31.2529 55.3689 27.5196 50.8184 27.5471C46.1475 27.5745 42.8551 31.2255 42.8684 35.8922Z" fill="black"/>
<path d="M39.8436 42.5352C38.6391 41.9725 33.232 37.5941 31.9204 36.1254C32.3487 35.2333 38.077 30.2647 39.9641 29.1529C39.8972 29.2901 39.8704 29.3725 39.8169 29.4549C39.5626 29.9352 39.2548 30.4019 39.054 30.9098C38.7729 31.6372 38.1439 32.0078 37.6621 32.5431C37.381 32.8588 37.0598 33.147 36.7252 33.4901C37.1803 33.9568 37.6219 34.396 38.0234 34.8627C38.1573 35.0137 38.1974 35.247 38.2777 35.4392C38.2911 35.4666 38.2777 35.4941 38.2777 35.5215C38.4785 36.5098 38.0101 37.1686 37.3542 37.8137C36.5914 38.5823 36.5914 38.3764 37.3275 39.0901C37.7424 39.4745 38.1573 39.8588 38.5588 40.2431C38.6525 40.3392 38.7194 40.4764 38.7863 40.6C39.1477 41.2313 39.4957 41.8764 39.8436 42.5352ZM35.6813 34.2451C35.0656 34.8901 34.5303 35.4392 33.9815 36.0019C34.5169 36.5372 35.0656 37.0862 35.6411 37.6627C36.1631 37.1 36.6984 36.5235 37.2472 35.947C36.6984 35.3431 36.2032 34.7941 35.6813 34.2451Z" fill="black"/>
<path d="M61.9137 42.5902C62.3018 41.8078 62.623 41.0941 62.9978 40.4078C63.1316 40.1745 63.3993 40.0098 63.6001 39.8176C64.0685 39.3784 64.5369 38.9254 65.0455 38.4451C64.5905 37.9647 64.1488 37.5117 63.7339 37.0313C63.6402 36.9215 63.5733 36.7431 63.5599 36.5921C63.5331 36.3313 63.5867 36.0431 63.5465 35.7823C63.4395 35.1784 63.7205 34.7666 64.1354 34.396C64.4566 34.1078 64.7377 33.7647 65.0723 33.4215C64.4566 32.8451 63.841 32.2686 63.2387 31.6784C63.0915 31.5274 63.0246 31.2941 62.9175 31.1019C62.5963 30.498 62.2884 29.8941 61.994 29.2764C64.8046 31.2941 67.4278 33.5451 69.9172 36.0843C67.3609 38.4039 64.818 40.6686 61.9137 42.5902ZM67.7892 35.9607C67.2271 35.398 66.6783 34.8353 66.0895 34.2313C65.5407 34.8353 65.0054 35.4254 64.5369 35.9333C64.6975 36.1392 64.8314 36.3313 64.9786 36.496C65.2597 36.8117 65.5407 37.1274 65.8352 37.4294C65.9556 37.5529 66.1028 37.7862 66.317 37.5666C66.8122 37.0451 67.294 36.5098 67.7892 35.9607Z" fill="black"/>
<path d="M42.8684 35.8921C42.8417 31.2255 46.1341 27.5745 50.8185 27.547C55.369 27.5196 59.0227 31.2529 58.9558 35.9058C58.9023 40.0235 55.7303 44.0039 50.5508 43.8941C46.0672 43.8117 42.8684 39.9 42.8684 35.8921ZM46.3215 33.7509C46.3215 35.0823 47.3788 36.1941 48.6904 36.1941C49.9351 36.1941 50.9924 35.0823 51.0058 33.7509C51.0192 32.4882 49.9619 31.3215 48.7841 31.3078C47.3788 31.2804 46.3349 32.3235 46.3215 33.7509ZM46.3884 31.5411C46.6828 31.5 46.9238 31.4313 46.9505 31.0882C46.9639 30.7862 46.6962 30.4843 46.4285 30.498C46.1207 30.5117 45.9334 30.6902 45.9334 31.0058C45.92 31.3215 46.1073 31.4862 46.3884 31.5411ZM48.0078 37.5255C47.7 37.5392 47.4457 37.8 47.4725 38.047C47.5126 38.3353 47.6599 38.5549 47.9677 38.5686C48.2354 38.5823 48.4763 38.3078 48.4495 38.0058C48.4361 37.6902 48.2488 37.5392 48.0078 37.5255Z" fill="white"/>
<path d="M35.6813 34.2451C36.1899 34.7941 36.6985 35.3431 37.2472 35.947C36.6985 36.5372 36.1631 37.1137 35.6412 37.6627C35.0657 37.0862 34.5169 36.5372 33.9816 36.0019C34.5303 35.4392 35.0657 34.8902 35.6813 34.2451ZM35.6278 36.5098C35.8018 36.3313 35.9624 36.1666 36.1364 36.0019C35.9624 35.8098 35.8152 35.6451 35.6412 35.4666C35.4672 35.6588 35.3066 35.8372 35.1326 36.0294C35.2932 36.1804 35.427 36.3176 35.6278 36.5098Z" fill="white"/>
<path d="M67.7891 35.9607C67.2939 36.496 66.8121 37.0451 66.3035 37.5666C66.0893 37.7862 65.9421 37.5529 65.8217 37.4294C65.5272 37.1274 65.2462 36.8117 64.9651 36.496C64.8179 36.3313 64.684 36.1392 64.5234 35.9333C64.9919 35.4117 65.5272 34.8352 66.076 34.2313C66.6782 34.8352 67.227 35.398 67.7891 35.9607ZM65.6075 35.9745C65.9287 36.0431 65.902 36.6333 66.3035 36.3313C66.4775 36.2078 66.7184 36.0019 66.3838 35.7C65.9689 35.3294 65.8886 35.7549 65.6075 35.9745Z" fill="white"/>
<path d="M46.3215 33.7509C46.3215 32.3372 47.3789 31.2941 48.7842 31.3078C49.9619 31.3215 51.0326 32.4882 51.0059 33.7509C50.9925 35.0823 49.9218 36.1941 48.6905 36.1941C47.3922 36.1941 46.3215 35.0823 46.3215 33.7509Z" fill="black"/>
<path d="M46.3883 31.5411C46.1073 31.4862 45.9199 31.3215 45.9333 31.0059C45.9467 30.6902 46.134 30.5117 46.4285 30.498C46.6962 30.4843 46.9638 30.7862 46.9505 31.0882C46.9237 31.4451 46.6828 31.5137 46.3883 31.5411Z" fill="black"/>
<path d="M48.0078 37.5255C48.2488 37.5392 48.4361 37.6902 48.4629 38.0196C48.4763 38.3215 48.2487 38.596 47.9811 38.5823C47.6732 38.5686 47.526 38.349 47.4859 38.0607C47.4323 37.8 47.7 37.5255 48.0078 37.5255Z" fill="black"/>
<path d="M35.6278 36.5098C35.4404 36.3176 35.2932 36.1803 35.1326 36.0294C35.3066 35.8372 35.4538 35.6588 35.6412 35.4666C35.8018 35.645 35.949 35.8098 36.1364 36.0019C35.949 36.1666 35.8018 36.3176 35.6278 36.5098Z" fill="black"/>
<path d="M65.6075 35.9745C65.8886 35.7549 65.9689 35.3294 66.3704 35.7C66.705 36.0019 66.4641 36.2078 66.2901 36.3313C65.902 36.6196 65.9288 36.0431 65.6075 35.9745Z" fill="black"/>
<path d="M31.5992 55.7666C31.8669 55.2313 32.3086 55.1078 32.8172 55.3685C33.7808 55.8627 34.276 56.096 35.2664 56.5215C35.775 56.7411 35.9356 57.0156 35.775 57.4136C35.7616 57.4274 35.7616 57.4411 35.7616 57.4548C35.601 57.8803 35.2798 57.9764 34.7578 57.7431C34.0485 57.4411 33.6871 57.2764 32.9778 56.9333C32.8305 57.2627 32.7502 57.4274 32.603 57.7568C33.0982 58.0038 33.3391 58.1136 33.8477 58.3333C34.3964 58.5803 34.5437 58.8685 34.3965 59.2391C34.3965 59.2529 34.3831 59.2529 34.3831 59.2666C34.2225 59.6646 33.9012 59.747 33.3525 59.4999C32.8707 59.2803 32.6298 59.1705 32.148 58.9372C31.974 59.3215 31.8803 59.5136 31.7063 59.898C31.4922 60.3509 31.1174 60.4607 30.6088 60.1999C30.5018 60.145 30.4348 60.1176 30.3278 60.0627C29.8459 59.8156 29.7523 59.3627 30.0199 58.8274C30.649 57.6195 30.9568 57.0019 31.5992 55.7666Z" fill="white"/>
<path d="M39.2281 60.0902C39.0541 60.7078 38.4652 60.749 38.4518 60.7215C38.3447 60.5706 38.1707 60.4058 37.9298 60.3235C37.4346 60.1588 37.1 60.4058 36.8993 61.0372C36.7788 61.4078 36.7119 61.5862 36.5914 61.9568C36.4174 62.5058 36.0293 62.5745 35.5743 62.4098C35.5073 62.3823 35.4672 62.3686 35.3869 62.3411C34.9185 62.1627 34.6642 61.8745 34.8649 61.3255C35.32 60.1176 35.5341 59.5274 35.9892 58.3196C36.0159 58.2647 36.3371 58.2647 36.6584 58.3745C36.9662 58.4843 37.2606 58.7039 37.3276 59.1294C37.3543 59.2117 37.3409 59.3078 37.3409 59.4039C37.622 59.0196 38.077 58.8274 38.5856 58.9921C39.1076 59.1706 39.3619 59.5823 39.2281 60.0902Z" fill="white"/>
<path d="M41.704 59.8568C42.9889 60.1587 43.7517 61.147 43.551 62.3136C43.551 62.3411 43.5376 62.3548 43.5376 62.3823C43.4841 62.6156 43.3904 62.7391 43.1227 62.698C41.9851 62.4921 41.4096 62.3685 40.2719 62.0666C40.2719 62.1078 40.2719 62.1489 40.2853 62.1901C40.3255 62.6019 40.6601 62.9176 41.182 63.0274C41.7174 63.1509 42.1323 63.0274 42.3598 62.7803C42.3732 62.7666 43.1896 62.945 43.0826 63.5352C43.0424 63.8097 42.8149 64.0019 42.4401 64.1117C42.0654 64.2215 41.53 64.194 40.8876 64.0568C39.6697 63.796 38.4919 62.7529 38.8934 61.3666C39.2414 60.1725 40.4058 59.5548 41.704 59.8568ZM41.4631 60.845C41.0214 60.7352 40.6199 60.9548 40.4727 61.3666C41.1151 61.5313 41.4363 61.5999 42.0788 61.7372C42.1457 61.2705 41.9182 60.9548 41.4631 60.845Z" fill="white"/>
<path d="M46.5222 60.6803C47.8204 60.8176 48.6904 61.7097 48.6235 62.8901C48.6235 62.9176 48.6235 62.9313 48.6235 62.9588C48.5967 63.1921 48.5164 63.3294 48.2487 63.3156C47.0977 63.247 46.5088 63.1921 45.3578 63.0411C45.3578 63.0823 45.3712 63.1235 45.3846 63.1646C45.4649 63.5627 45.8396 63.8372 46.3616 63.8921C46.9103 63.947 47.3118 63.7686 47.4992 63.4941C47.5126 63.4803 48.329 63.5627 48.3022 64.1666C48.2889 64.4411 48.0881 64.6745 47.7401 64.8117C47.3788 64.9627 46.8702 65.0176 46.201 64.949C44.5949 64.7843 43.725 63.8097 43.9257 62.5195C44.1131 61.2843 45.1972 60.5431 46.5222 60.6803ZM46.3884 61.6823C45.9333 61.6274 45.5719 61.9019 45.4649 62.3137C46.1207 62.396 46.4419 62.4372 47.0977 62.4921C47.1111 62.0392 46.8568 61.7372 46.3884 61.6823Z" fill="white"/>
<path d="M50.7515 64.3588C50.7515 62.8901 50.7648 62.149 50.7648 60.6803C50.7648 60.0901 51.0861 59.7607 51.6348 59.747C52.2103 59.7333 52.4914 59.7196 53.0669 59.6921C54.6194 59.6097 55.5295 60.145 55.6767 61.4078C55.8106 62.6705 54.9941 63.4254 53.3212 63.5215C53.0401 63.5352 52.8929 63.549 52.6118 63.549C52.6252 63.8509 52.6252 64.0019 52.6386 64.3176C52.652 64.798 52.3843 65.0999 51.8356 65.1137C51.7285 65.1137 51.6749 65.1137 51.5545 65.1137C51.0459 65.1274 50.7515 64.8666 50.7515 64.3588ZM53.9636 61.5862C53.9368 61.1333 53.629 60.9137 53.0803 60.9411C52.8393 60.9548 52.7323 60.9548 52.4914 60.9686C52.5181 61.5176 52.5181 61.7921 52.5449 62.3548C52.7992 62.3411 52.933 62.3411 53.1873 62.3274C53.7227 62.2999 53.9904 62.0254 53.9636 61.5862Z" fill="white"/>
<path d="M60.6957 60.5431C60.9902 61.8058 61.1374 62.4235 61.4318 63.6862C61.4452 63.7274 61.1508 63.947 60.776 64.0294C60.4147 64.1117 59.9998 64.0843 59.7053 63.7274C59.6786 63.6862 59.6384 63.6313 59.6116 63.5627C59.3707 64.0705 58.9826 64.4686 58.2197 64.5921C57.0152 64.798 56.4798 64.0843 56.3728 63.247C56.2791 62.5058 56.2389 62.1352 56.1452 61.3941C56.0783 60.8451 56.3594 60.598 56.7743 60.5431C56.8412 60.5294 56.8813 60.5294 56.9483 60.5156C57.3899 60.447 57.7379 60.5705 57.8316 61.147C57.9387 61.7784 57.9788 62.0941 58.0859 62.7254C58.1394 63.096 58.3937 63.2745 58.7685 63.2058C59.0629 63.1509 59.277 62.9725 59.3707 62.7666C59.2369 62.0392 59.1566 61.6686 59.0228 60.9274C58.9157 60.3647 59.1834 60.1313 59.6116 60.0352C59.6786 60.0215 59.7187 60.0078 59.7856 59.9941C60.2139 59.8843 60.5619 59.9666 60.6957 60.5431Z" fill="white"/>
<path d="M66.6917 60.0215C67.1334 61.2019 66.6515 62.3548 65.4068 62.7803C64.7912 62.9999 64.2157 62.8627 63.8811 62.5333C64.0417 63.0823 64.122 63.3568 64.2826 63.8921C64.4432 64.4274 64.1622 64.7156 63.6937 64.8529C63.6134 64.8803 63.5733 64.8803 63.5063 64.9078C63.0111 65.045 62.623 64.9764 62.4758 64.3999C62.0877 62.8627 61.6995 61.3117 61.3114 59.7744C61.298 59.7195 61.5657 59.5274 61.8869 59.4313C62.2483 59.3352 62.7033 59.3627 62.9978 59.8156C63.0111 59.8431 63.0245 59.8705 63.0379 59.9117C63.0914 59.3901 63.4662 58.9235 64.0685 58.7176C65.2061 58.3333 66.2233 58.7862 66.6917 60.0215ZM65.1124 60.6117C64.9384 60.0764 64.4967 59.8705 64.0015 60.0352C63.6268 60.1587 63.4127 60.4195 63.3457 60.7352C63.426 60.996 63.4662 61.1195 63.5331 61.3803C63.667 61.7784 64.0818 61.9293 64.5369 61.7784C65.0589 61.5999 65.2864 61.1333 65.1124 60.6117Z" fill="white"/>
<path d="M66.531 55.7529C67.0262 55.5333 67.4411 55.6568 67.6285 56.0823C67.8159 56.494 67.6285 56.9058 67.1199 57.1391C66.6247 57.3587 66.183 57.2215 66.009 56.796C65.8484 56.3705 66.0492 55.9725 66.531 55.7529ZM66.7585 58.5529C66.5578 58.0313 66.7853 57.7293 67.1868 57.5509C67.2537 57.5234 67.2805 57.5097 67.3474 57.4823C67.7757 57.2901 68.1103 57.3176 68.3512 57.8529C68.7795 58.8136 68.9936 59.294 69.4219 60.2548C69.6494 60.7764 69.4219 61.0921 68.9803 61.298C68.9133 61.3254 68.8732 61.3391 68.8063 61.3803C68.3378 61.5862 67.9497 61.545 67.7356 61.0097C67.3474 60.0215 67.1467 59.5274 66.7585 58.5529Z" fill="white"/>
<path d="M70.225 59.8705C69.5424 58.4019 68.8598 56.9333 68.1639 55.4509C68.1371 55.396 68.3513 55.1627 68.6457 55.0117C69.074 54.7921 69.6629 54.7509 70.1045 55.6019C70.6934 56.7411 71.2823 57.8803 71.8712 59.0195C72.1255 59.5274 71.9114 59.8705 71.4831 60.0901C71.4162 60.1313 71.376 60.145 71.3091 60.1862C70.8674 60.4058 70.4659 60.3921 70.225 59.8705Z" fill="white"/>
</svg>
